<?xml version="1.0" standalone="no"?><!DOCTYPE svg PUBLIC "-//W3C//DTD SVG 1.1//EN" "http://www.w3.org/Graphics/SVG/1.1/DTD/svg11.dtd"><svg t="1690342336784" class="icon" viewBox="0 0 1024 1024" version="1.1" xmlns="http://www.w3.org/2000/svg" p-id="10807" xmlns:xlink="http://www.w3.org/1999/xlink" width="200" height="200"><path d="M512 512m-436.9 0a436.9 436.9 0 1 0 873.8 0 436.9 436.9 0 1 0-873.8 0Z" fill="#FFFFFF" p-id="10808"></path><path d="M512 958.9c-60.3 0-118.8-11.8-173.9-35.1-53.2-22.5-101-54.7-142-95.8-41-41-73.3-88.8-95.8-142C77 630.8 65.1 572.3 65.1 512s11.8-118.8 35.1-173.9c22.5-53.2 54.7-101 95.8-142 41-41 88.8-73.3 142-95.8C393.2 77 451.7 65.1 512 65.1s118.8 11.8 173.9 35.1c53.2 22.5 101 54.7 142 95.8 41 41 73.3 88.8 95.8 142 23.3 55.1 35.1 113.6 35.1 173.9 0 60.3-11.8 118.8-35.1 173.9-22.5 53.2-54.7 101-95.8 142s-88.8 73.3-142 95.8C630.8 947 572.3 958.9 512 958.9z m0-873.8C276.6 85.1 85.1 276.6 85.1 512c0 235.4 191.5 426.9 426.9 426.9 235.4 0 426.9-191.5 426.9-426.9 0-235.4-191.5-426.9-426.9-426.9z" fill="#983BFF" p-id="10809"></path><path d="M512 943.8c-58.3 0-114.8-11.4-168.1-33.9-51.4-21.8-97.6-52.9-137.3-92.5-39.7-39.7-70.8-85.8-92.5-137.3C91.6 626.8 80.2 570.3 80.2 512s11.4-114.8 33.9-168.1c21.8-51.4 52.9-97.6 92.5-137.3s85.8-70.8 137.3-92.5C397.2 91.6 453.7 80.2 512 80.2s114.8 11.4 168.1 33.9c51.4 21.8 97.6 52.9 137.3 92.5 39.7 39.7 70.8 85.8 92.5 137.3 22.5 53.2 33.9 109.8 33.9 168.1s-11.4 114.8-33.9 168.1c-21.8 51.4-52.9 97.6-92.5 137.3-39.7 39.7-85.8 70.8-137.3 92.5-53.3 22.5-109.8 33.9-168.1 33.9z m0-843.6c-227.1 0-411.8 184.7-411.8 411.8 0 227.1 184.7 411.8 411.8 411.8 227.1 0 411.8-184.7 411.8-411.8 0-227.1-184.7-411.8-411.8-411.8z" fill="#6BAAFF" p-id="10810"></path><path d="M512 926.4c-55.9 0-110.2-11-161.3-32.6C301.3 873 257 843.1 219 805s-67.9-82.4-88.8-131.7C108.5 622.2 97.6 567.9 97.6 512c0-55.9 11-110.2 32.6-161.3C151 301.3 180.9 257 219 219s82.4-67.9 131.7-88.8c51.1-21.6 105.4-32.6 161.3-32.6 55.9 0 110.2 11 161.3 32.6C722.7 151 767 180.9 805 219s67.9 82.4 88.8 131.7c21.6 51.1 32.6 105.4 32.6 161.3 0 55.9-11 110.2-32.6 161.3C873 722.7 843.1 767 805 805s-82.4 67.9-131.7 88.8c-51.1 21.7-105.4 32.6-161.3 32.6z m0-808.8c-217.5 0-394.4 176.9-394.4 394.4 0 217.5 176.9 394.4 394.4 394.4 217.5 0 394.4-176.9 394.4-394.4 0-217.5-176.9-394.4-394.4-394.4z" fill="#5CFFF9" p-id="10811"></path><path d="M512 512m-399.2 0a399.2 399.2 0 1 0 798.4 0 399.2 399.2 0 1 0-798.4 0Z" fill="#5900A3" p-id="10812"></path><path d="M791.5 587.9c0 124.5-122.6 177.2-273.8 177.2S244 712.4 244 587.9s122.6-245.4 273.8-245.4 273.7 120.9 273.7 245.4z" fill="#FFCAA8" p-id="10813"></path><path d="M517.8 771.8c-80.6 0-148.7-14.8-197-42.8-26.5-15.4-47-34.7-61-57.4-14.9-24.2-22.5-52.4-22.5-83.7 0-62.4 30-126 82.3-174.3 26-24.1 56-43.1 89.1-56.5 34.9-14.1 71.6-21.3 109.1-21.3s74.2 7.2 109.1 21.3c33 13.4 63 32.4 89.1 56.5 52.3 48.4 82.3 111.9 82.3 174.3 0 31.4-7.6 59.5-22.5 83.7-14 22.7-34.5 42-61 57.4-48.4 28-116.5 42.8-197 42.8z m0-422.6c-142.3 0-267.1 111.5-267.1 238.7 0 56.4 25.9 99.9 76.9 129.5 46.3 26.8 112 41 190.2 41 78.2 0 144-14.2 190.2-41 51-29.6 76.9-73.2 76.9-129.5-0.1-127.1-124.9-238.7-267.1-238.7z" fill="#9A6500" p-id="10814"></path><path d="M738.7 583.6c0 97.7-98.9 117.4-221 117.4s-221-19.6-221-117.4 98.9-177 221-177 221 79.3 221 177z" fill="#FFF8DE" p-id="10815"></path><path d="M436 625.6c0 9.8-17.4 12.6-38.8 12.6s-38.8-2.7-38.8-12.6 17.4-14.7 38.8-14.7 38.8 4.8 38.8 14.7zM579.7 625.6c0 9.8 17.4 12.6 38.8 12.6s38.8-2.7 38.8-12.6-17.4-14.7-38.8-14.7-38.8 4.8-38.8 14.7z" fill="#FF7669" p-id="10816"></path><path d="M391.6 570.2a22.2 30.2 0 1 0 44.4 0 22.2 30.2 0 1 0-44.4 0Z" fill="#201600" p-id="10817"></path><path d="M579.7 570.2a22.2 30.2 0 1 0 44.4 0 22.2 30.2 0 1 0-44.4 0Z" fill="#201600" p-id="10818"></path><path d="M530.6 582.5c0 6.5-10.8 16.1-24.1 16.1s-24.1-9.6-24.1-16.1 10.8-7.9 24.1-7.9 24.1 1.4 24.1 7.9z" fill="#593E00" p-id="10819"></path><path d="M498.1 630.2a8.4 13.5 0 1 0 16.8 0 8.4 13.5 0 1 0-16.8 0Z" fill="#FF5F49" p-id="10820"></path><path d="M477 798.4l3-18.6c0.4-2.2-0.4-4.5-2-6.1l-13.7-13c-4.1-3.9-1.9-11 3.7-11.9l18.6-3c2.2-0.3 4.2-1.7 5.1-3.8l8.1-17c2.5-5.2 9.8-5.3 12.4-0.1l8.6 16.8c1 2 3 3.4 5.3 3.8l18.7 2.4c5.7 0.7 8 7.7 4 11.7l-13.4 13.3c-1.6 1.6-2.3 3.9-1.9 6.2l3.4 18.6c1 5.6-4.8 10-9.9 7.4l-16.8-8.6c-2-1.1-4.5-1-6.4 0.1l-16.6 8.9c-5.1 2.8-11.1-1.4-10.2-7.1z" fill="#FFFEBB" p-id="10821"></path><path d="M483.8 811.6c-2.4 0-4.8-0.7-6.9-2.1-3.8-2.7-5.8-7.2-5.1-11.9v-0.1l3-18.6c0.1-0.5-0.1-1.1-0.5-1.4l-13.7-13c-3.4-3.2-4.6-8-3.2-12.4 1.4-4.5 5.1-7.7 9.7-8.4l18.7-3c0.5-0.1 0.9-0.4 1.1-0.8l8.1-17.1c2-4.3 6.2-6.9 11-6.9 4.7 0 8.8 2.6 10.9 6.8l8.5 16.7c0.2 0.5 0.8 0.8 1.4 1l18.6 2.4c4.6 0.6 8.4 3.7 9.9 8.2 1.5 4.4 0.4 9.2-2.9 12.5L539 776.6c-0.2 0.2-0.6 0.8-0.5 1.5l3.4 18.6c0.8 4.6-1 9.2-4.7 12-3.7 2.8-8.6 3.2-12.7 1.1l-16.8-8.6c-0.5-0.3-1-0.3-1.4 0l-0.1 0.1-16.6 8.9c-1.8 0.9-3.8 1.4-5.8 1.4z m-1.6-12.4c-0.1 0.9 0.4 1.4 0.7 1.7 0.4 0.3 1 0.5 1.7 0.1l16.6-8.9c3.5-2 7.8-2 11.4-0.1l16.7 8.6c0.7 0.4 1.3 0.1 1.7-0.1 0.3-0.2 0.8-0.8 0.7-1.7l-3.4-18.6c-0.7-3.8 0.5-7.8 3.3-10.7l0.1-0.1 13.4-13.3c0.6-0.6 0.5-1.3 0.4-1.7-0.1-0.4-0.5-1-1.3-1.1l-18.8-2.5c-3.9-0.6-7.4-3.1-9.1-6.6l-8.6-16.8c-0.3-0.7-0.8-1-1.5-1-0.4 0-1.1 0.1-1.5 1l-8.1 17c-1.7 3.6-5.1 6.2-9.1 6.8l-18.6 3c-0.9 0.1-1.2 0.8-1.3 1.2-0.1 0.4-0.2 1.1 0.4 1.7l13.7 13c2.9 2.8 4.3 6.8 3.6 10.7l-3.1 18.4z" fill="#9A6500" p-id="10822"></path><path d="M465.7 301.5a52.1 47.7 0 1 0 104.2 0 52.1 47.7 0 1 0-104.2 0Z" fill="#FFF1AD" p-id="10823"></path><path d="M517.8 353.3c-31 0-56.2-23.2-56.2-51.8s25.2-51.8 56.2-51.8c31 0 56.2 23.2 56.2 51.8s-25.3 51.8-56.2 51.8z m0-95.4c-26.5 0-48.1 19.6-48.1 43.6s21.6 43.6 48.1 43.6 48.1-19.6 48.1-43.6-21.7-43.6-48.1-43.6z" fill="#9A6500" p-id="10824"></path><path d="M634.5 458.8c7.9-3.8 8.5-8-1.3-28.2s-19.7-35.4-27.6-31.5c-7.9 3.8-6.5 23.4 3.3 43.6 9.8 20.2 17.6 19.9 25.6 16.1z" fill="#FFF1AD" p-id="10825"></path><path d="M627.1 464.9c-2 0-4.2-0.4-6.5-1.5-5.5-2.6-10.4-8.7-15.4-19-9.7-20-13.3-43.3-1.4-49 5.6-2.7 11.7-0.1 18.1 7.9 4.4 5.5 9.3 13.9 15 25.6 8.9 18.4 11.7 27.7-0.6 33.7-2.4 1-5.6 2.3-9.2 2.3z m-19-62.3c-0.3 0-0.5 0.1-0.8 0.2-4.4 2.1-4.5 18 5.2 38.1 4 8.4 7.9 13.5 11.6 15.2 2.4 1.1 4.8 0.9 8.6-0.9 4.5-2.2 6.3-3.1-3.2-22.8-5.4-11.1-10-19-14-24-3-3.8-5.6-5.8-7.4-5.8z" fill="#9A6500" p-id="10826"></path><path d="M399.8 458.8c-7.9-3.8-8.5-8 1.3-28.2s19.7-35.4 27.6-31.5c7.9 3.8 6.5 23.4-3.3 43.6-9.8 20.2-17.6 19.9-25.6 16.1z" fill="#FFF1AD" p-id="10827"></path><path d="M407.2 464.9c-3.6 0-6.8-1.3-9.2-2.4-3.9-1.9-8.5-5-8.3-11.7 0.1-4.5 2.3-10.7 7.7-21.9 5.7-11.7 10.6-20.1 15-25.6 6.4-7.9 12.4-10.6 18.1-7.9 5.5 2.6 8 9.6 7.3 19.6-0.7 8.7-3.8 19.2-8.7 29.4-5 10.4-9.9 16.4-15.4 19-2.3 1.1-4.4 1.5-6.5 1.5z m19-62.3c-1.7 0-4.4 2.1-7.4 5.8-4 5-8.6 12.9-14 24-4.8 9.8-6.8 15.4-6.9 18.6 0 1.5 0.1 2.5 3.7 4.2 3.8 1.8 6.2 2.1 8.6 0.9 3.6-1.7 7.5-6.9 11.6-15.2 4.5-9.3 7.3-18.7 7.9-26.5 0.6-7.4-1.1-10.9-2.7-11.7-0.3-0.1-0.6-0.1-0.8-0.1z" fill="#9A6500" p-id="10828"></path><path d="M829.6 512.9c-6.5 4.5-15.8 3.4-24.7-2-1.3-0.8-3-0.1-3.5 1.3-4 11.6-11.6 19.4-20.5 19.4-12.9 0-23.3-16.6-23.3-37.2 0-20.5 10.5-37.2 23.3-37.2 0.8 0 1.6-0.4 2-1.1 1.1-1.7 2.4-3.1 4.1-4.2 10.6-7.4 28.7 0.3 40.4 17.2 11.8 16.8 12.8 36.4 2.2 43.8z" fill="#6BD6FF" p-id="10829"></path><path d="M781 537.3c-16.3 0-29.1-18.9-29.1-43 0-23.2 11.9-41.6 27.4-42.9 1.3-1.7 2.8-3.1 4.6-4.3 6.8-4.7 15.8-5.1 25.3-1.1 8.6 3.7 16.8 10.6 23.1 19.7 13.8 19.8 14.1 42.6 0.7 51.9-7.3 5.1-17.3 5.1-27.4 0.1-5.4 12.2-14.5 19.6-24.6 19.6z m0-74.3c-9.4 0-17.6 14.7-17.6 31.4s8.2 31.4 17.6 31.4c5.9 0 11.8-6.1 15-15.5 0.8-2.4 2.6-4.2 5-5.1 2.3-0.8 4.9-0.6 7 0.7 7.2 4.4 14.1 5.2 18.4 2.2 7.7-5.3 6-22.1-3.6-35.8-5-7.2-11.6-12.9-18.2-15.6-3.3-1.4-9.6-3.3-14.2-0.1-1 0.7-1.8 1.6-2.5 2.6-1.5 2.4-4.1 3.8-6.9 3.8z m0-11.6z" fill="#9A6500" p-id="10830"></path><path d="M777.3 474l2.8 51.7s3.8 1.3 9.6-4.1c5.8-5.4-8.5-47.5-8.5-47.5h-3.9z" fill="#FFF1AD" p-id="10831"></path><path d="M781.2 526.3c-0.8 0-1.2-0.1-1.3-0.2l-0.3-0.1v-0.3l-2.8-52.2h4.7l0.1 0.3c0.6 1.7 14.4 42.5 8.4 48.1-4 3.8-7.2 4.4-8.8 4.4z m-0.7-1c1 0.1 4.3 0.1 8.8-4.1 4.5-4.2-4.5-34.8-8.6-46.7h-2.9l2.7 50.8z" fill="#9A6500" p-id="10832"></path><path d="M794.1 469.2l31.1 40.7s4.1-1.2 6.1-9.1c2.1-7.8-33.9-33.9-33.9-33.9l-3.3 2.3z" fill="#FFF1AD" p-id="10833"></path><path d="M825 510.4L793.4 469l4.1-2.8 0.3 0.2c1.5 1.1 36.2 26.3 34.1 34.4-2.1 8-6.3 9.4-6.5 9.4l-0.4 0.2z m-30.2-41.1l30.5 39.9c0.9-0.5 3.9-2.4 5.5-8.6 1.6-6.1-23.3-25.8-33.4-33.1l-2.6 1.8z" fill="#9A6500" p-id="10834"></path><path d="M748.1 349.1c-2 8.6-5.9 10-27.7 5.1-21.8-5-38.8-11.2-36.8-19.8 2-8.6 21.2-11.5 43.1-6.5s23.3 12.6 21.4 21.2z" fill="#FFF1AD" p-id="10835"></path><path d="M738.2 361.1c-4.9 0-11-1.2-18.8-2.9-12.6-2.9-21.8-5.8-28.2-8.8-9.1-4.4-13.1-9.7-11.7-15.8 2.9-12.8 26.3-14.5 48-9.6 11.2 2.5 18.1 5.9 21.9 10.7 4.2 5.3 3.5 11.3 2.6 15.4-1.8 8-6.2 11-13.8 11z m-31.9-31.6c-11 0-18 2.7-18.8 5.8-0.4 1.8 2.3 4.3 7.3 6.7 5.8 2.8 14.4 5.5 26.5 8.2 21.3 4.9 21.7 2.8 22.8-2 0.9-4.1 0.6-6.4-1-8.5-2.5-3.1-8.3-5.8-17.4-7.8-7.3-1.7-13.9-2.4-19.4-2.4z" fill="#9A6500" p-id="10836"></path><path d="M792.9 473.8c-9.5 9.5-31.3 5.5-50.9-13.5l-0.2-0.2c-7.7-7.5-18-11.9-28.9-12.4-32.3-1.4-74.5-14.1-104.7-30.8C558 389 530.4 343.8 546.5 316c16.1-27.8 69.8-27.8 120.1 0.1 35.7 19.9 75.1 56.9 89 86.6 2.9 6.3 7.3 11.7 12.8 15.9 2.7 2 5.4 4.4 8.2 7.1 19.6 19 25.9 38.5 16.3 48.1z" fill="#6BD6FF" p-id="10837"></path><path d="M779.3 482.7c-12 0-26.9-6.9-40-19.7l-0.2-0.2c-7.1-6.9-16.4-10.9-26.4-11.3-32.5-1.4-75.2-14-106.4-31.3-33.8-18.8-59.2-46.5-66.3-72.3-3.5-12.7-2.4-24.4 3.1-34 8.5-14.7 26.4-22.8 50.5-22.8h0.1c23.3 0 49.8 7.7 74.7 21.5 38 21.1 77 59.1 90.6 88.3 2.7 5.7 6.7 10.7 11.6 14.5 2.9 2.2 5.7 4.7 8.6 7.4 13.9 13.4 21.9 27.8 21.9 39.3 0 5.7-1.9 10.7-5.5 14.3-4.1 4.3-9.8 6.3-16.3 6.3zM593.6 298.9c-21.2 0-36.7 6.7-43.8 18.9-4.4 7.7-5.2 17.4-2.3 28 6.6 23.9 30.6 49.8 62.6 67.6 30.2 16.8 71.6 29 103 30.4 11.9 0.5 23 5.3 31.4 13.5l0.2 0.2c18.5 18 38 21 45.5 13.6 2.2-2.2 3.3-5.1 3.2-8.8-0.1-9.3-7.4-22-19.6-33.8-2.6-2.5-5.3-4.8-7.9-6.8-5.9-4.5-10.8-10.5-14-17.4-13-27.9-50.6-64.4-87.4-84.8-23.7-13.2-48.9-20.5-70.9-20.5v-0.1z" fill="#9A6500" p-id="10838"></path><path d="M593.2 366.2l2-12.5c0.2-1.5-0.3-3-1.4-4.1l-9.2-8.7c-2.7-2.6-1.3-7.4 2.5-8l12.5-2c1.5-0.2 2.8-1.2 3.4-2.6l5.4-11.4c1.7-3.5 6.6-3.6 8.3-0.1l5.7 11.3c0.7 1.3 2 2.3 3.5 2.5l12.5 1.6c3.8 0.5 5.4 5.2 2.7 7.9l-9 8.9c-1 1.1-1.6 2.6-1.3 4.1l2.3 12.5c0.7 3.8-3.2 6.7-6.6 5l-11.2-5.8c-1.4-0.7-3-0.7-4.3 0l-11.1 6c-3.3 2.1-7.3-0.8-6.7-4.6z" fill="#FFF1AD" p-id="10839"></path><path d="M597.7 372.1c-1 0-2-0.3-2.9-0.9-1.6-1.1-2.5-3-2.2-5l2-12.5c0.2-1.3-0.2-2.7-1.2-3.6l-9.2-8.7c-1.4-1.4-1.9-3.4-1.3-5.3 0.6-1.9 2.2-3.3 4.1-3.6l12.5-2c1.4-0.2 2.5-1 3.1-2.3l5.4-11.4c0.9-1.8 2.6-2.9 4.6-2.9 2 0 3.7 1.1 4.6 2.9L623 328c0.6 1.2 1.8 2 3.2 2.3l12.5 1.6c2 0.3 3.6 1.6 4.2 3.4 0.6 1.9 0.2 3.9-1.2 5.3l-9 8.9c-1 1-1.4 2.4-1.1 3.7l2.3 12.5c0.4 2-0.4 3.9-2 5.1-1.6 1.2-3.6 1.3-5.4 0.4l-11.2-5.8c-1.2-0.7-2.6-0.6-3.8 0l-11.1 6c-1 0.5-1.8 0.7-2.7 0.7z m-4-5.8c-0.2 1.6 0.4 3.1 1.7 4.1 1.3 0.9 2.9 1 4.3 0.2l11.1-6c1.5-0.8 3.3-0.8 4.8 0l11.2 5.8c1.4 0.7 3 0.6 4.3-0.4 1.3-1 1.9-2.5 1.6-4.1l-2.3-12.5c-0.3-1.6 0.2-3.3 1.4-4.6l9-8.9c1.1-1.1 1.5-2.7 1-4.2s-1.8-2.6-3.4-2.8l-12.5-1.6c-1.7-0.3-3.2-1.3-3.9-2.8l-5.7-11.3c-0.7-1.5-2.1-2.3-3.7-2.3s-3 0.9-3.7 2.4l-5.4 11.4c-0.7 1.6-2.1 2.6-3.8 2.9l-12.5 2c-1.6 0.3-2.8 1.3-3.3 2.9-0.5 1.5-0.1 3.1 1.1 4.2l9.2 8.7c1.2 1.2 1.8 2.8 1.5 4.5l-2 12.4z" fill="#9A6500" p-id="10840"></path><path d="M597.7 375.1c-1.6 0-3.2-0.5-4.6-1.4-2.6-1.8-3.9-4.8-3.4-7.9l2-12.5c0.1-0.3-0.1-0.7-0.3-1l-9.2-8.7c-2.3-2.2-3.1-5.4-2.1-8.3 0.9-3 3.4-5.2 6.5-5.7l12.6-2c0.3 0 0.6-0.3 0.7-0.5l5.5-11.5c1.4-2.9 4.2-4.6 7.3-4.6 3.1 0 5.9 1.7 7.3 4.6l5.7 11.2c0.2 0.3 0.5 0.6 0.9 0.6L639 329c3.1 0.4 5.7 2.5 6.7 5.5s0.2 6.2-2 8.4l-8.9 8.8c-0.2 0.2-0.4 0.6-0.3 1l2.3 12.5c0.6 3.1-0.7 6.2-3.2 8-2.5 1.9-5.8 2.1-8.5 0.7l-11.2-5.8c-0.3-0.2-0.7-0.2-1 0h-0.1l-11.1 6c-1.3 0.7-2.6 1-4 1z m-1.1-8.4c-0.1 0.6 0.3 1 0.5 1.1 0.2 0.2 0.6 0.3 1.1 0l11.1-6c2.4-1.3 5.2-1.4 7.7-0.1l11.2 5.8c0.5 0.2 0.9 0.1 1.1-0.1 0.2-0.2 0.6-0.5 0.4-1.1l-2.3-12.4c-0.5-2.5 0.3-5.2 2.2-7.2l0.1-0.1 9-8.9c0.4-0.4 0.3-0.9 0.3-1.1-0.1-0.2-0.3-0.7-0.9-0.7l-12.6-1.7c-2.6-0.4-4.9-2.1-6.1-4.4l-5.7-11.3c-0.2-0.5-0.5-0.7-1-0.7-0.3 0-0.7 0.1-1 0.6l-5.4 11.4c-1.1 2.4-3.4 4.2-6.1 4.5l-12.4 2c-0.6 0.1-0.8 0.5-0.9 0.8-0.1 0.3-0.1 0.7 0.3 1.2l9.2 8.7c1.9 1.8 2.9 4.5 2.4 7.2l-2.2 12.5z" fill="#9A6500" p-id="10841"></path><path d="M206.6 510.2c6.5 4.5 15.8 3.4 24.7-2 1.3-0.8 3-0.1 3.5 1.3 4 11.6 11.6 19.4 20.5 19.4 12.9 0 23.3-16.6 23.3-37.2 0-20.5-10.5-37.2-23.3-37.2-0.8 0-1.6-0.4-2-1.1-1.1-1.7-2.4-3.1-4.1-4.2-10.6-7.4-28.7 0.3-40.4 17.2-11.9 16.8-12.8 36.4-2.2 43.8z" fill="#6BD6FF" p-id="10842"></path><path d="M255.2 534.6c-10.1 0-19.3-7.4-24.5-19.6-10.1 4.9-20.1 5-27.4-0.1-13.4-9.3-13.1-32.1 0.7-51.9 6.3-9 14.5-16 23.1-19.7 9.5-4 18.5-3.7 25.3 1.1 1.7 1.2 3.3 2.7 4.6 4.3 15.5 1.3 27.4 19.7 27.4 42.9-0.1 24.2-12.9 43-29.2 43zM232.4 502c0.9 0 1.9 0.2 2.8 0.5 2.3 0.9 4.2 2.7 5 5.1 3.2 9.4 9.1 15.5 15 15.5 9.4 0 17.6-14.7 17.6-31.4s-8.2-31.3-17.5-31.4h-0.1c-2.8 0-5.4-1.4-6.9-3.7-0.7-1.1-1.5-1.9-2.5-2.6-4.6-3.2-10.9-1.3-14.2 0.1-6.5 2.8-13.2 8.5-18.2 15.6-9.6 13.7-11.2 30.4-3.6 35.8 4.3 3 11.2 2.1 18.4-2.2 1.3-0.9 2.8-1.3 4.2-1.3z" fill="#9A6500" p-id="10843"></path><path d="M258.9 471.4l-2.8 51.7s-3.8 1.3-9.6-4.1c-5.8-5.4 8.5-47.5 8.5-47.5h3.9z" fill="#FFF1AD" p-id="10844"></path><path d="M255 523.6c-1.6 0-4.8-0.6-8.8-4.4-5.9-5.5 7.8-46.3 8.4-48.1l0.1-0.3h4.7l-2.8 52.5-0.3 0.1c-0.1 0.1-0.5 0.2-1.3 0.2z m0.4-51.7c-4 11.9-13.1 42.5-8.6 46.7 4.5 4.2 7.8 4.2 8.8 4.1l2.7-50.7h-2.9z" fill="#9A6500" p-id="10845"></path><path d="M242.1 466.5L211 507.2s-4.1-1.2-6.1-9.1c-2.1-7.8 33.9-33.9 33.9-33.9l3.3 2.3z" fill="#FFF1AD" p-id="10846"></path><path d="M211.2 507.7l-0.3-0.1c-0.2-0.1-4.3-1.4-6.5-9.4-2.1-8.1 32.6-33.3 34.1-34.4l0.3-0.2 4.1 2.8-31.7 41.3z m27.5-42.9c-10.1 7.4-35 27-33.4 33.1 1.6 6.2 4.5 8.1 5.5 8.6l30.5-39.9-2.6-1.8z" fill="#9A6500" p-id="10847"></path><path d="M288.1 346.4c2 8.6 5.9 10 27.7 5.1 21.8-5 38.8-11.2 36.8-19.8-2-8.6-21.2-11.5-43.1-6.5s-23.3 12.6-21.4 21.2z" fill="#FFF1AD" p-id="10848"></path><path d="M298 358.4c-7.6 0-12-2.9-13.8-11.1-0.9-4.1-1.7-10.1 2.6-15.4 3.8-4.8 10.7-8.1 21.9-10.7 21.6-4.9 45-3.2 48 9.6 1.4 6.1-2.5 11.4-11.7 15.8-6.4 3.1-15.6 6-28.2 8.8-7.8 1.8-14 3-18.8 3z m31.9-31.6c-5.6 0-12.2 0.7-19.5 2.4-9 2.1-14.9 4.7-17.4 7.8-1.7 2.1-1.9 4.5-1 8.5 1.1 4.8 1.6 6.8 22.8 2 12-2.7 20.7-5.4 26.5-8.2 5-2.4 7.7-4.9 7.3-6.7-0.6-3.1-7.7-5.8-18.7-5.8z" fill="#9A6500" p-id="10849"></path><path d="M243.3 471.1c9.5 9.5 31.3 5.5 50.9-13.5l0.2-0.2c7.7-7.5 18-11.9 28.9-12.4 32.3-1.4 74.5-14.1 104.7-30.8 50.2-27.9 77.8-73.1 61.7-100.9-16.1-27.8-69.8-27.8-120.1 0.1-35.7 19.9-75.1 56.9-89 86.6-2.9 6.3-7.3 11.7-12.8 15.9-2.7 2-5.4 4.4-8.2 7.1-19.6 19-25.9 38.5-16.3 48.1z" fill="#6BD6FF" p-id="10850"></path><path d="M256.8 480c-6.5 0-12.2-2-16.3-6.2-3.7-3.7-5.6-8.6-5.5-14.3 0.1-11.5 8.1-25.9 21.9-39.3 2.8-2.8 5.7-5.3 8.6-7.4 4.9-3.8 9-8.8 11.6-14.5 13.7-29.2 52.6-67.2 90.6-88.3 24.8-13.8 51.4-21.4 74.7-21.5h0.1c24.1 0 42 8.1 50.5 22.8 5.5 9.5 6.6 21.3 3.1 34-7.1 25.8-32.5 53.5-66.3 72.3-31.2 17.3-74 29.9-106.4 31.3-10 0.4-19.3 4.4-26.3 11.3l-0.2 0.2c-13.2 12.7-28 19.6-40.1 19.6z m185.8-183.8h-0.1c-22 0-47.2 7.3-70.9 20.5-36.8 20.4-74.3 56.9-87.4 84.8-3.2 6.9-8 12.9-14 17.4-2.6 2-5.2 4.3-7.9 6.8-12.2 11.8-19.5 24.5-19.6 33.8 0 3.6 1.1 6.6 3.2 8.8 7.4 7.5 26.9 4.4 45.5-13.6l0.2-0.2c8.4-8.2 19.5-13 31.4-13.5 31.4-1.4 72.8-13.6 103-30.4 32-17.8 56-43.7 62.6-67.6 2.9-10.6 2.1-20.3-2.3-28-7-12-22.5-18.8-43.7-18.8z" fill="#9A6500" p-id="10851"></path><path d="M443 363.5l-2-12.5c-0.2-1.5 0.3-3 1.4-4.1l9.2-8.7c2.7-2.6 1.3-7.4-2.5-8l-12.5-2c-1.5-0.2-2.8-1.2-3.4-2.6l-5.4-11.4c-1.7-3.5-6.6-3.6-8.3-0.1l-5.7 11.3c-0.7 1.3-2 2.3-3.5 2.5l-12.5 1.6c-3.8 0.5-5.4 5.2-2.7 7.9l9 8.9c1 1.1 1.6 2.6 1.3 4.1l-2.3 12.5c-0.7 3.8 3.2 6.7 6.6 5l11.2-5.8c1.4-0.7 3-0.7 4.3 0l11.1 6c3.3 2.1 7.3-0.7 6.7-4.6z" fill="#FFF1AD" p-id="10852"></path><path d="M438.5 369.4c-0.9 0-1.7-0.2-2.5-0.7l-11.1-6a3.7 3.7 0 0 0-3.8 0l-11.2 5.8c-1.7 0.9-3.8 0.7-5.4-0.4-1.6-1.2-2.4-3.1-2-5.1l2.3-12.5c0.3-1.3-0.2-2.7-1.1-3.7l-8.9-8.9c-1.4-1.4-1.9-3.4-1.2-5.3 0.6-1.9 2.2-3.2 4.2-3.4l12.5-1.6c1.3-0.2 2.6-1.1 3.1-2.3L419 314c0.9-1.8 2.6-2.9 4.6-2.9 2 0 3.8 1.1 4.6 2.9l5.4 11.4c0.6 1.3 1.7 2.1 3.1 2.3l12.5 2c1.9 0.3 3.5 1.7 4.1 3.6 0.6 1.9 0.1 3.9-1.3 5.3l-9.2 8.7c-1 0.9-1.4 2.3-1.2 3.6l2 12.5c0.3 2-0.5 3.9-2.2 5-0.9 0.7-1.9 1-2.9 1z m-15.6-8.2c0.8 0 1.7 0.2 2.4 0.6l11.1 6c1.4 0.8 3 0.7 4.3-0.2 1.3-0.9 2-2.5 1.7-4.1l-2-12.5c-0.3-1.7 0.3-3.3 1.5-4.5l9.2-8.7c1.2-1.1 1.6-2.7 1.1-4.2s-1.7-2.6-3.3-2.9l-12.5-2c-1.7-0.2-3.1-1.3-3.8-2.9l-5.4-11.4c-0.7-1.4-2.1-2.4-3.7-2.4s-3 0.9-3.7 2.3l-5.7 11.3c-0.7 1.5-2.2 2.5-3.9 2.8l-12.5 1.6c-1.6 0.2-2.9 1.2-3.4 2.8-0.5 1.5-0.1 3.1 1 4.2l9 8.9c1.2 1.3 1.7 3 1.4 4.6l-2.3 12.4c-0.3 1.6 0.3 3.1 1.6 4.1 1.3 0.9 2.9 1.1 4.3 0.4l11.2-5.8c0.8-0.2 1.6-0.4 2.4-0.4z" fill="#9A6500" p-id="10853"></path><path d="M434.6 371.4l-11.1-6h-0.1c-0.3-0.2-0.6-0.2-1 0l-11.2 5.8c-2.8 1.4-6 1.1-8.5-0.7-2.5-1.9-3.7-4.9-3.2-8l2.3-12.5c0.1-0.5-0.2-0.9-0.3-1l-8.9-8.8c-2.2-2.2-3-5.4-2-8.4s3.6-5.1 6.7-5.5l12.4-1.6c0.4-0.1 0.8-0.3 0.9-0.6l5.7-11.2c1.4-2.8 4.2-4.6 7.3-4.6 3.2 0 6 1.8 7.3 4.6l5.5 11.5c0.1 0.3 0.4 0.5 0.7 0.5l12.6 2c3.1 0.5 5.6 2.7 6.5 5.7 0.9 3 0.1 6.2-2.1 8.3l-9.2 8.7c-0.3 0.2-0.4 0.6-0.3 1l2 12.5c0.5 3.1-0.9 6.2-3.4 7.9-1.4 1-3 1.4-4.6 1.4-1.5 0-2.8-0.3-4-1z m2.9-19.8c-0.4-2.6 0.5-5.3 2.4-7.2l9.2-8.7c0.4-0.4 0.4-0.9 0.3-1.2-0.1-0.3-0.3-0.7-0.9-0.8l-12.4-2c-2.7-0.4-5-2.1-6.1-4.5l-5.4-11.4c-0.3-0.6-0.7-0.6-1-0.6-0.4 0-0.8 0.2-1 0.7l-5.7 11.3c-1.2 2.3-3.5 4-6.1 4.4l-12.6 1.7c-0.6 0.1-0.8 0.5-0.9 0.7-0.1 0.2-0.2 0.7 0.3 1.1l9 8.9 0.1 0.1c1.9 2 2.7 4.7 2.2 7.2l-2.3 12.4c-0.1 0.6 0.2 1 0.4 1.1 0.2 0.2 0.6 0.3 1.1 0.1l11.2-5.8c2.4-1.3 5.3-1.3 7.7 0.1l11.1 6c0.5 0.3 0.9 0.1 1.1 0 0.2-0.1 0.6-0.5 0.5-1.1l-2.2-12.5z" fill="#9A6500" p-id="10854"></path><path d="M547.2 275c7.7 8.1 9.2 18.8 6.7 21.1-2.4 2.3-5.1-7-12.8-15.1-7.7-8.1-17.4-12.1-15-14.4 2.5-2.2 13.4 0.3 21.1 8.4z" fill="#FFFFFF" p-id="10855"></path></svg>